<!-- Generated by IcoMoon.io -->
<svg version="1.1" xmlns="http://www.w3.org/2000/svg" width="1024" height="1024" viewBox="0 0 1024 1024">
<g id="icomoon-ignore">
</g>
<path fill="#0e6cb4" d="M825.404 31.1c-58.175 32.458-291.141 160.040-334.411 183.133-50.44 26.921-100.605 55.098-101.073 56.772-0.232 0.844 15.887 10.983 35.822 22.538 19.94 11.551 43.565 25.265 52.509 30.475 35.199 20.503 30.557 21.446 102.648-20.809 8.78-5.146 31.46-18.443 50.406-29.546 18.942-11.103 34.664-19.96 34.94-19.686 0.279 0.276-6.006 27.253-13.964 59.943-7.954 32.695-15.994 65.872-17.866 73.726-8.033 33.74-4.25 43.372 27.494 69.967 84.15 70.496 101.371 85.079 101.788 86.202 0.259 0.692-13.728 1.743-31.086 2.327-72.926 2.46-138.793 6.362-143.938 8.522-11.761 4.942-14.875 10.526-37.763 67.712l-21.827 54.532 19.604-1.070c28.114-1.539 109.14-6.861 191.853-12.605 39.28-2.727 106.958-7.249 150.399-10.049 43.441-2.796 89.709-5.841 102.821-6.759 13.112-0.921 25.591-1.682 27.731-1.691 3.494-0.017 3.119-0.748-3.678-7.189-4.161-3.946-36.674-34.743-72.259-68.444-73.756-69.851-172.069-163.912-177.744-170.056l-3.816-4.134 5.962-30.94c3.282-17.018 19.557-98.914 36.166-181.993 16.609-83.083 30.204-152.087 30.204-153.342 0-3.188-1.343-2.887-10.923 2.46z"></path>
<path fill="#fab707" d="M189.355 29.302c0 3.003 2.978 18.562 44.448 232.313 28.018 144.412 26.685 133.928 17.956 141.448-6.263 5.391-66.068 62.618-109.454 104.735-11.555 11.215-36.889 35.439-56.295 53.83-54.166 51.322-87.037 83.209-86.339 83.755 0.348 0.276 26.724 2.168 58.609 4.211 31.886 2.038 73.477 4.801 92.428 6.13 75.297 5.292 210.089 14.24 214.498 14.24 2.38 0 4.22 3.631 14.894 29.408 10.656 25.729 22.362 53.989 36.541 88.223 7.851 18.945 23.73 56.755 35.289 84.020 23.893 56.36 39.247 92.789 51.201 121.491l8.259 19.828 10.239-24.027c5.631-13.215 19.833-46.715 31.564-74.44 11.728-27.731 26.443-62.516 32.703-77.302 6.255-14.79 19.105-45.416 28.556-68.056 9.447-22.646 22.659-54.028 29.361-69.738 6.702-15.715 11.998-28.809 11.766-29.107-0.229-0.297-18.829 0.623-41.329 2.048-22.503 1.423-50.865 3.094-63.037 3.709l-22.121 1.123-7.103 17.836c-9.172 23.032-8.659 22.778-15.082 7.459-7.856-18.747-35.728-86.943-44.869-109.776-14.894-37.212-17.401-38.61-74.39-41.381-94.363-4.591-118.888-6.018-124.047-7.228-0.516-0.121 21.785-19.281 90.638-77.878 47.756-40.64 46.698-36.042 26.785-116.312-20.421-82.313-23.235-94.083-22.649-94.75 0.499-0.568 17.144 8.152 25.726 13.482 3.166 1.961 4.465 1.806 9.899-1.208 3.437-1.906 31.418-17.324 62.176-34.256 30.759-16.937 55.715-31.004 55.456-31.263s-23.156-12.901-50.884-28.1c-27.726-15.195-69.696-38.21-93.266-51.141-164.295-90.142-178.125-97.392-178.125-93.327z"></path>
</svg>
